# xmcd
#
# Track frame offsets: 
#        150
#        23708
#        41633
#        62970
#        78119
#        85829
#        105089
#        126547
#        149894
#        167287
#        190319
#
# Disc length: 2709 seconds
#
# Revision: 0
# Processed by: cddbd v1.5.2PL0 Copyright (c) Steve Scherf et al.
# Submitted via: ExactAudioCopy v1.0b6
#
DISCID=8e0a930b
DTITLE=Joe Satriani - Unstoppable Momentum
DYEAR=2013
DGENRE=Instrumental Rock
TTITLE0=Unstoppable Momentum
TTITLE1=Can't Go Back
TTITLE2=Lies and Truths
TTITLE3=Three Sheets to the Wind
TTITLE4=I'll Put a Stone on Your Cairn
TTITLE5=A Door into Summer
TTITLE6=Shine on American Dreamer
TTITLE7=Jumpin' In
TTITLE8=Jumpin' Out
TTITLE9=The Weight of the World
TTITLE10=A Celebration
EXTD=
EXTT0=
EXTT1=
EXTT2=
EXTT3=
EXTT4=
EXTT5=
EXTT6=
EXTT7=
EXTT8=
EXTT9=
EXTT10=
PLAYORDER=
